<svg width="50" height="26" viewBox="0 0 50 85" fill="none" xmlns="http://www.w3.org/2000/svg">
<path d="M49 1H1V83L25.3731 58.5745L49 83V1Z" fill="black" stroke="black"/>
<path d="M32.75 24.1406C32.75 24.2839 32.6979 24.4141 32.5938 24.5312C32.5026 24.6484 32.3854 24.7656 32.2422 24.8828C32.112 24.987 31.9753 25.0846 31.832 25.1758C31.6888 25.2669 31.5716 25.3516 31.4805 25.4297C31.2591 25.612 30.9922 25.7031 30.6797 25.7031C30.4714 25.7031 30.2695 25.6771 30.0742 25.625C29.8919 25.5729 29.6966 25.5469 29.4883 25.5469C29.3971 25.5469 29.3255 25.5664 29.2734 25.6055C29.1042 25.7096 28.9414 25.7682 28.7852 25.7812C28.6289 25.7943 28.4596 25.8008 28.2773 25.8008C28.1732 25.8008 28.0299 25.7552 27.8477 25.6641C27.6784 25.5599 27.5872 25.4557 27.5742 25.3516L27.7109 25.2148C27.5677 25.2669 27.4701 25.3255 27.418 25.3906C27.3659 25.4557 27.3268 25.5273 27.3008 25.6055C27.2878 25.6836 27.2747 25.7682 27.2617 25.8594C27.2487 25.9505 27.2161 26.0417 27.1641 26.1328C27.099 26.263 26.9948 26.3411 26.8516 26.3672C26.7214 26.3932 26.5846 26.4518 26.4414 26.543C26.3112 26.6341 26.194 26.8034 26.0898 27.0508C25.9857 27.2852 25.9336 27.6823 25.9336 28.2422C25.9336 28.4896 25.9466 28.7305 25.9727 28.9648C25.9987 29.1992 26.0117 29.4336 26.0117 29.668C26.0117 30.1367 25.9727 30.6055 25.8945 31.0742C25.8164 31.5299 25.7773 31.9987 25.7773 32.4805C25.7773 32.7669 25.7318 33.0404 25.6406 33.3008C25.5625 33.5612 25.5234 33.8346 25.5234 34.1211C25.5234 34.5247 25.6927 34.8047 26.0312 34.9609C25.9401 35 25.8685 35.1042 25.8164 35.2734C25.7643 35.4297 25.7188 35.612 25.6797 35.8203C25.6536 36.0156 25.6341 36.2109 25.6211 36.4062C25.6211 36.5885 25.6211 36.7188 25.6211 36.7969C25.6211 36.849 25.6211 36.9206 25.6211 37.0117C25.6211 37.1029 25.6276 37.2005 25.6406 37.3047C25.6536 37.3958 25.6667 37.487 25.6797 37.5781C25.6927 37.6562 25.7188 37.7148 25.7578 37.7539C25.862 37.8581 25.9141 37.9883 25.9141 38.1445C25.9141 38.3008 25.888 38.457 25.8359 38.6133C25.7839 38.7565 25.7578 38.9062 25.7578 39.0625C25.7578 39.7005 25.7969 40.3385 25.875 40.9766C25.9661 41.6016 26.0117 42.2331 26.0117 42.8711C26.0117 43.2878 25.9661 43.7044 25.875 44.1211C25.7969 44.5378 25.7578 44.9544 25.7578 45.3711C25.7578 45.7487 25.8229 46.0482 25.9531 46.2695C26.0833 46.4909 26.2591 46.6602 26.4805 46.7773C26.7018 46.8945 26.9557 46.9727 27.2422 47.0117C27.5286 47.0508 27.8281 47.0703 28.1406 47.0703C28.6354 47.0703 29.1237 47.0312 29.6055 46.9531C30.1003 46.862 30.5885 46.8164 31.0703 46.8164C31.5521 46.8164 31.9232 46.9661 32.1836 47.2656C32.457 47.5651 32.5938 47.9492 32.5938 48.418C32.5938 48.7695 32.5352 49.1016 32.418 49.4141C32.3138 49.7135 32.1576 49.974 31.9492 50.1953C31.7539 50.4297 31.513 50.612 31.2266 50.7422C30.9401 50.8724 30.6146 50.9375 30.25 50.9375C29.9896 50.9375 29.6966 50.9049 29.3711 50.8398C28.8503 50.7357 28.3294 50.6576 27.8086 50.6055C27.2878 50.5664 26.7539 50.5469 26.207 50.5469C25.7513 50.5469 25.2956 50.5534 24.8398 50.5664C24.3841 50.5924 23.9284 50.6055 23.4727 50.6055C22.9258 50.6055 22.3854 50.599 21.8516 50.5859C21.3177 50.5729 20.7773 50.5664 20.2305 50.5664C20.0352 50.5664 19.8464 50.5339 19.6641 50.4688C19.4818 50.4036 19.2995 50.3711 19.1172 50.3711C18.987 50.3711 18.8372 50.3906 18.668 50.4297C18.4987 50.4818 18.3164 50.5339 18.1211 50.5859C17.9388 50.638 17.7435 50.6836 17.5352 50.7227C17.3268 50.7747 17.1185 50.8008 16.9102 50.8008C16.4284 50.8008 16.0117 50.6901 15.6602 50.4688C15.3086 50.2604 15.1328 49.8893 15.1328 49.3555C15.1328 49.1862 15.1523 49.0234 15.1914 48.8672C15.2044 48.75 15.263 48.5872 15.3672 48.3789C15.4844 48.1706 15.6146 47.9688 15.7578 47.7734C15.9141 47.5651 16.0703 47.3893 16.2266 47.2461C16.3958 47.1029 16.5456 47.0312 16.6758 47.0312C16.7799 47.0312 16.8776 47.0573 16.9688 47.1094C17.0729 47.1615 17.1836 47.2266 17.3008 47.3047C17.431 47.3698 17.5807 47.4284 17.75 47.4805C17.9193 47.5326 18.1211 47.5586 18.3555 47.5586C18.8242 47.5586 19.3125 47.513 19.8203 47.4219C20.3281 47.3307 20.7904 47.1745 21.207 46.9531C21.6367 46.7188 21.9883 46.4193 22.2617 46.0547C22.5352 45.6771 22.6719 45.2083 22.6719 44.6484C22.6719 44.4401 22.6589 44.2383 22.6328 44.043C22.6068 43.8346 22.5807 43.6263 22.5547 43.418C22.4766 42.7409 22.431 42.0573 22.418 41.3672C22.4049 40.6771 22.3984 39.987 22.3984 39.2969C22.3984 38.8411 22.457 38.4049 22.5742 37.9883C22.6914 37.5586 22.75 37.1159 22.75 36.6602C22.75 36.3997 22.7044 36.1523 22.6133 35.918C22.5221 35.6836 22.4766 35.4427 22.4766 35.1953C22.4766 35.0781 22.4896 34.9609 22.5156 34.8438C22.5547 34.7266 22.5742 34.6029 22.5742 34.4727C22.5742 34.1862 22.5417 33.9128 22.4766 33.6523C22.4245 33.3789 22.3984 33.1055 22.3984 32.832C22.3984 32.3763 22.444 31.9206 22.5352 31.4648C22.6393 31.0091 22.6914 30.5534 22.6914 30.0977C22.6914 29.8242 22.6589 29.5508 22.5938 29.2773C22.5286 29.0039 22.457 28.737 22.3789 28.4766C22.3138 28.2161 22.2487 27.9492 22.1836 27.6758C22.1185 27.4023 22.0859 27.1289 22.0859 26.8555C22.0859 26.6862 22.1055 26.5104 22.1445 26.3281C22.0664 26.1458 21.9557 26.0026 21.8125 25.8984C21.6693 25.7943 21.513 25.6966 21.3438 25.6055C21.1745 25.5143 21.0052 25.4232 20.8359 25.332C20.6797 25.2409 20.556 25.1107 20.4648 24.9414C20.3607 24.9544 20.2956 25.0065 20.2695 25.0977C20.2435 25.1758 20.224 25.2669 20.2109 25.3711C20.1979 25.4622 20.1719 25.5534 20.1328 25.6445C20.1068 25.7227 20.0352 25.7682 19.918 25.7812C19.5534 25.8203 19.1823 25.8529 18.8047 25.8789C18.4401 25.9049 18.0755 25.918 17.7109 25.918C17.5026 25.918 17.2422 25.9049 16.9297 25.8789C16.6302 25.8529 16.3372 25.7943 16.0508 25.7031C15.7773 25.612 15.543 25.4818 15.3477 25.3125C15.1523 25.1432 15.0547 24.9089 15.0547 24.6094C15.0547 24.4271 15.0938 24.2383 15.1719 24.043C15.263 23.8346 15.3672 23.6328 15.4844 23.4375C15.6146 23.2422 15.7513 23.0599 15.8945 22.8906C16.0508 22.7083 16.1875 22.5521 16.3047 22.4219C16.3958 22.3307 16.5326 22.2526 16.7148 22.1875C16.8971 22.1224 17.099 22.0768 17.3203 22.0508C17.5547 22.0247 17.8021 22.0052 18.0625 21.9922C18.3229 21.9792 18.5833 21.9727 18.8438 21.9727C19.1693 21.9727 19.4688 21.9792 19.7422 21.9922C20.0286 21.9922 20.263 21.9922 20.4453 21.9922C20.7708 21.9922 21.168 21.9857 21.6367 21.9727C22.1185 21.9466 22.5742 21.9141 23.0039 21.875C23.4466 21.8359 23.8242 21.7969 24.1367 21.7578C24.4622 21.7057 24.6315 21.6536 24.6445 21.6016C24.7227 21.6406 24.8138 21.7057 24.918 21.7969C25.0352 21.875 25.1523 21.9531 25.2695 22.0312C25.3997 22.1094 25.5234 22.181 25.6406 22.2461C25.7578 22.3112 25.849 22.3438 25.9141 22.3438C25.9922 22.3438 26.0508 22.3177 26.0898 22.2656C26.1419 22.2005 26.181 22.1289 26.207 22.0508C26.2461 21.9727 26.2721 21.8945 26.2852 21.8164C26.2982 21.7253 26.3047 21.6536 26.3047 21.6016H26.4414C26.7279 21.6016 26.9167 21.6862 27.0078 21.8555C27.112 22.0247 27.1641 22.2266 27.1641 22.4609C27.1641 22.513 27.1576 22.5586 27.1445 22.5977C27.1445 22.6367 27.1445 22.6758 27.1445 22.7148C27.2747 22.6888 27.3659 22.6302 27.418 22.5391C27.4831 22.4349 27.5352 22.3307 27.5742 22.2266C27.6133 22.1224 27.6589 22.0312 27.7109 21.9531C27.776 21.875 27.8802 21.8359 28.0234 21.8359C28.0755 21.8359 28.1536 21.849 28.2578 21.875H28.3945C28.681 22.1094 28.9023 22.2917 29.0586 22.4219C29.2279 22.5521 29.3581 22.6497 29.4492 22.7148C29.5404 22.7669 29.599 22.7995 29.625 22.8125C29.651 22.8255 29.6706 22.832 29.6836 22.832C29.7096 22.832 29.7552 22.8385 29.8203 22.8516C29.8984 22.8646 29.9375 22.8646 29.9375 22.8516C29.9375 22.7995 29.9049 22.7539 29.8398 22.7148C29.7878 22.6628 29.7227 22.6107 29.6445 22.5586C29.5794 22.5065 29.5143 22.4479 29.4492 22.3828C29.3971 22.3177 29.3711 22.2461 29.3711 22.168C29.5273 22.168 29.651 22.1484 29.7422 22.1094C29.8333 22.0573 29.9115 22.0052 29.9766 21.9531C30.0417 21.888 30.1068 21.8294 30.1719 21.7773C30.25 21.7253 30.3477 21.6992 30.4648 21.6992C30.6341 21.6992 30.7643 21.7253 30.8555 21.7773C30.9466 21.8294 31.0247 21.888 31.0898 21.9531C31.1549 22.0052 31.2135 22.0573 31.2656 22.1094C31.3177 22.1615 31.3893 22.1875 31.4805 22.1875C31.5456 22.1875 31.5977 22.181 31.6367 22.168C31.6888 22.1549 31.7474 22.1484 31.8125 22.1484C31.9036 22.1484 31.9622 22.1875 31.9883 22.2656C32.0143 22.3438 32.0339 22.4154 32.0469 22.4805C32.0859 22.6758 32.1185 22.8255 32.1445 22.9297C32.1706 23.0339 32.2031 23.125 32.2422 23.2031C32.2812 23.2812 32.3268 23.3659 32.3789 23.457C32.444 23.5352 32.5286 23.6523 32.6328 23.8086C32.7109 23.9128 32.75 24.0234 32.75 24.1406ZM22.9648 25.4297C23.043 25.3255 23.0234 25.2083 22.9062 25.0781C22.7891 24.9479 22.6589 24.8828 22.5156 24.8828C22.3594 24.8828 22.2552 24.9609 22.2031 25.1172C22.1641 25.2604 22.1445 25.3906 22.1445 25.5078C22.1706 25.599 22.2096 25.6706 22.2617 25.7227C22.3008 25.7747 22.3464 25.8203 22.3984 25.8594C22.4505 25.8984 22.5091 25.918 22.5742 25.918C22.6784 25.918 22.7565 25.8984 22.8086 25.8594C22.8607 25.8073 22.8997 25.7487 22.9258 25.6836C22.9518 25.6185 22.9648 25.5339 22.9648 25.4297Z" fill="white"/>
</svg>
