<svg width="50" height="26" viewBox="0 0 50 85" fill="none" xmlns="http://www.w3.org/2000/svg">
<path d="M49 1H1V83L25.3731 58.5745L49 83V1Z" fill="#1A472A" stroke="#1A472A"/>
<path d="M15.8945 24.9414C15.8424 25.0065 15.7839 25.0651 15.7188 25.1172C15.6667 25.1693 15.6016 25.1953 15.5234 25.1953C15.4323 25.1953 15.3542 25.1562 15.2891 25.0781C15.237 25 15.2109 24.9154 15.2109 24.8242C15.2109 24.8112 15.2174 24.7917 15.2305 24.7656C15.2435 24.7396 15.25 24.7135 15.25 24.6875L15.3672 24.6484C15.4714 24.6484 15.569 24.681 15.6602 24.7461C15.7513 24.8112 15.8294 24.8763 15.8945 24.9414ZM21.4609 38.8672V38.9258C21.4479 38.8867 21.4414 38.8542 21.4414 38.8281C21.4414 38.7891 21.4414 38.7565 21.4414 38.7305L21.4609 38.8477V38.8672ZM35.0742 29.8633C35.0742 30.0586 35.0677 30.2799 35.0547 30.5273C35.0417 30.7747 35.0156 31.0286 34.9766 31.2891C34.9505 31.5495 34.9115 31.8034 34.8594 32.0508C34.8203 32.2852 34.7682 32.4935 34.7031 32.6758C34.5208 33.1185 34.2799 33.5221 33.9805 33.8867C33.694 34.2513 33.4661 34.6615 33.2969 35.1172C33.2578 35.2344 33.1471 35.3646 32.9648 35.5078C32.7826 35.651 32.5807 35.7943 32.3594 35.9375C32.138 36.0807 31.9167 36.2174 31.6953 36.3477C31.487 36.4648 31.3242 36.5625 31.207 36.6406C30.4648 37.0964 29.7227 37.4414 28.9805 37.6758C28.2383 37.9102 27.4375 38.0273 26.5781 38.0273H26.4609C26.2526 37.9102 26.0768 37.832 25.9336 37.793C25.8034 37.7539 25.6146 37.7344 25.3672 37.7344C25.1198 37.7344 24.8789 37.7409 24.6445 37.7539C24.4102 37.7669 24.1758 37.7865 23.9414 37.8125C23.8503 37.8255 23.668 37.8776 23.3945 37.9688C23.1341 38.0469 22.8607 38.1445 22.5742 38.2617C22.2878 38.3659 22.0273 38.4766 21.793 38.5938C21.5716 38.6979 21.4609 38.7826 21.4609 38.8477V38.9258C21.487 39.0169 21.5195 39.0625 21.5586 39.0625C21.6237 39.0625 21.6823 39.0299 21.7344 38.9648C21.7995 38.8867 21.8711 38.8477 21.9492 38.8477C22.0143 38.8477 22.0664 38.8802 22.1055 38.9453C22.1445 39.0104 22.1706 39.0885 22.1836 39.1797C22.2096 39.2578 22.2227 39.3424 22.2227 39.4336C22.2357 39.5117 22.2422 39.5703 22.2422 39.6094C22.2422 39.987 22.2031 40.3646 22.125 40.7422C22.0469 41.1068 22.0078 41.4779 22.0078 41.8555C22.0078 42.2331 22.0013 42.6107 21.9883 42.9883C21.9883 43.3529 21.9883 43.724 21.9883 44.1016C21.9883 44.7917 22.0208 45.3125 22.0859 45.6641C22.1641 46.0156 22.3073 46.2826 22.5156 46.4648C22.724 46.6341 23.0104 46.7643 23.375 46.8555C23.7396 46.9336 24.2148 47.0508 24.8008 47.207C24.7617 47.3242 24.7422 47.4349 24.7422 47.5391C24.7422 47.6953 24.7878 47.8125 24.8789 47.8906C24.9831 47.9557 25.0872 48.0273 25.1914 48.1055C25.3086 48.1706 25.4128 48.2487 25.5039 48.3398C25.6081 48.431 25.6602 48.5742 25.6602 48.7695C25.6602 48.9388 25.5951 49.0885 25.4648 49.2188C25.3086 49.375 25.2044 49.5052 25.1523 49.6094C25.1133 49.7135 25.0742 49.7982 25.0352 49.8633C24.9961 49.9154 24.9245 49.9609 24.8203 50C24.7161 50.026 24.5273 50.0456 24.2539 50.0586C23.6289 50.0977 23.0104 50.1172 22.3984 50.1172C22.1641 50.1172 21.9297 50.1107 21.6953 50.0977C21.4609 50.0977 21.2201 50.0977 20.9727 50.0977C20.3477 50.0977 19.7357 50.1172 19.1367 50.1562C18.7721 50.1823 18.4141 50.2409 18.0625 50.332C17.724 50.4232 17.3659 50.4688 16.9883 50.4688C16.5586 50.4688 16.2656 50.3451 16.1094 50.0977C15.9531 49.8503 15.875 49.5312 15.875 49.1406C15.875 48.763 15.9596 48.4505 16.1289 48.2031C16.2982 47.9427 16.5065 47.7344 16.7539 47.5781C17.0143 47.4089 17.2878 47.2721 17.5742 47.168C17.8737 47.0638 18.1471 46.9661 18.3945 46.875C18.6549 46.7708 18.8698 46.6667 19.0391 46.5625C19.2083 46.4583 19.293 46.3216 19.293 46.1523C19.293 45.9961 19.2604 45.8464 19.1953 45.7031C19.1432 45.5599 19.1172 45.4102 19.1172 45.2539C19.1172 45.1628 19.1628 44.987 19.2539 44.7266C19.3451 44.4661 19.3906 44.1602 19.3906 43.8086C19.3906 43.6654 19.3906 43.5286 19.3906 43.3984C19.3906 43.2552 19.3841 43.112 19.3711 42.9688C19.293 42.9297 19.2344 42.8516 19.1953 42.7344C19.1562 42.6172 19.1237 42.4935 19.0977 42.3633C19.0846 42.2201 19.0781 42.0833 19.0781 41.9531C19.0781 41.8099 19.0781 41.6992 19.0781 41.6211C19.0781 41.1263 19.1107 40.638 19.1758 40.1562C19.2409 39.6615 19.2734 39.1667 19.2734 38.6719C19.2734 38.3594 19.2539 38.0534 19.2148 37.7539C19.1758 37.4544 19.1562 37.1484 19.1562 36.8359C19.1562 36.7448 19.1823 36.6797 19.2344 36.6406C19.1172 36.5495 19.0586 36.4193 19.0586 36.25C19.0586 36.0677 19.0846 35.8984 19.1367 35.7422C19.2018 35.5859 19.2344 35.4232 19.2344 35.2539C19.2344 34.9935 19.2083 34.7331 19.1562 34.4727C19.1042 34.2122 19.0456 33.9583 18.9805 33.7109C18.9284 33.4505 18.8763 33.1966 18.8242 32.9492C18.7852 32.6888 18.7656 32.4284 18.7656 32.168C18.7656 32.0117 18.7852 31.862 18.8242 31.7188C18.8763 31.5755 18.9219 31.4323 18.9609 31.2891C19.013 31.1328 19.0586 30.9831 19.0977 30.8398C19.1497 30.6836 19.1758 30.5208 19.1758 30.3516C19.1758 29.9089 19.1302 29.4792 19.0391 29.0625C18.9609 28.6328 18.9219 28.1966 18.9219 27.7539C18.9219 27.4935 18.9805 27.3047 19.0977 27.1875C19.2279 27.0573 19.3646 26.9531 19.5078 26.875C19.651 26.7969 19.7812 26.7253 19.8984 26.6602C20.0286 26.582 20.0938 26.4714 20.0938 26.3281C20.0938 26.237 20.0482 26.1589 19.957 26.0938C19.8789 26.0286 19.8008 25.9961 19.7227 25.9961C19.5404 25.9961 19.3841 26.0547 19.2539 26.1719C19.1237 26.2891 18.974 26.3477 18.8047 26.3477C18.7005 26.3477 18.6029 26.2826 18.5117 26.1523C18.4336 26.0091 18.3424 25.8594 18.2383 25.7031C18.1471 25.5469 18.0365 25.4036 17.9062 25.2734C17.7891 25.1302 17.6458 25.0586 17.4766 25.0586C17.3333 25.0586 17.1901 25.0781 17.0469 25.1172C16.9036 25.1562 16.7604 25.1758 16.6172 25.1758C16.4219 25.1758 16.2982 25.1302 16.2461 25.0391C16.194 24.9479 16.168 24.8307 16.168 24.6875C16.168 24.6224 16.168 24.5573 16.168 24.4922C16.181 24.4271 16.1875 24.362 16.1875 24.2969C16.1875 24.1927 16.168 24.082 16.1289 23.9648C16.0898 23.8477 15.9987 23.7891 15.8555 23.7891C15.7773 23.7891 15.6992 23.8021 15.6211 23.8281C15.8034 23.5938 16.0443 23.418 16.3438 23.3008C16.6432 23.1706 16.9557 23.0729 17.2812 23.0078C17.6198 22.9427 17.9583 22.8971 18.2969 22.8711C18.6484 22.832 18.9609 22.7799 19.2344 22.7148C19.3385 22.6888 19.4297 22.6693 19.5078 22.6562C19.599 22.6432 19.6966 22.6367 19.8008 22.6367C20.0352 22.6367 20.263 22.6628 20.4844 22.7148C20.7188 22.7539 20.9466 22.7734 21.168 22.7734C21.4154 22.7734 21.6107 22.7214 21.7539 22.6172C21.9102 22.5 22.0924 22.4414 22.3008 22.4414C22.4049 22.4935 22.5417 22.5586 22.7109 22.6367C22.8802 22.7018 23.0169 22.7344 23.1211 22.7344C23.5638 22.7344 24 22.7083 24.4297 22.6562C24.8594 22.6042 25.2891 22.5781 25.7188 22.5781C26.1875 22.5781 26.6367 22.6432 27.0664 22.7734C27.5091 22.8906 27.9453 23.0273 28.375 23.1836C28.8177 23.3398 29.2539 23.4961 29.6836 23.6523C30.1133 23.8086 30.556 23.9258 31.0117 24.0039C31.168 24.0299 31.3177 24.0885 31.4609 24.1797C31.6172 24.2708 31.7669 24.3815 31.9102 24.5117C32.0534 24.6289 32.1901 24.7526 32.3203 24.8828C32.4635 25.013 32.5938 25.1237 32.7109 25.2148C32.8932 25.3581 33.0365 25.5208 33.1406 25.7031C33.2578 25.8854 33.3685 26.0742 33.4727 26.2695C33.5898 26.4518 33.707 26.6341 33.8242 26.8164C33.9544 26.9857 34.1172 27.1354 34.3125 27.2656C34.4948 27.3828 34.638 27.5521 34.7422 27.7734C34.8464 27.9818 34.918 28.2096 34.957 28.457C35.0091 28.7044 35.0417 28.9518 35.0547 29.1992C35.0677 29.4466 35.0742 29.668 35.0742 29.8633ZM31.8516 31.0547C31.8516 30.2214 31.7214 29.4661 31.4609 28.7891C31.2135 28.099 30.849 27.513 30.3672 27.0312C29.8984 26.5365 29.3255 26.1523 28.6484 25.8789C27.9714 25.6055 27.2161 25.4688 26.3828 25.4688C26.2526 25.4688 26.0573 25.4688 25.7969 25.4688C25.5365 25.4688 25.25 25.4753 24.9375 25.4883C24.625 25.5013 24.2995 25.5208 23.9609 25.5469C23.6224 25.5729 23.3099 25.612 23.0234 25.6641C22.737 25.7031 22.4831 25.7617 22.2617 25.8398C22.0534 25.9049 21.9167 25.9896 21.8516 26.0938C21.7604 26.237 21.6302 26.4128 21.4609 26.6211C21.3047 26.8164 21.2266 26.9922 21.2266 27.1484C21.2266 27.2917 21.2656 27.4414 21.3438 27.5977C21.4219 27.7409 21.5065 27.8971 21.5977 28.0664C21.7018 28.2357 21.793 28.4115 21.8711 28.5938C21.9622 28.763 22.0078 28.9388 22.0078 29.1211C21.9036 29.1341 21.806 29.1667 21.7148 29.2188C21.6237 29.2578 21.5781 29.3359 21.5781 29.4531C21.5781 29.6484 21.6367 29.8633 21.7539 30.0977C21.8841 30.332 21.9492 30.5729 21.9492 30.8203C21.9492 31.0026 21.9102 31.1458 21.832 31.25C21.7539 31.3411 21.6693 31.4193 21.5781 31.4844C21.487 31.5495 21.4023 31.6146 21.3242 31.6797C21.2461 31.7448 21.207 31.8294 21.207 31.9336C21.207 32.0508 21.2917 32.2461 21.4609 32.5195C21.6302 32.793 21.819 33.0859 22.0273 33.3984C22.2357 33.6979 22.4245 33.9779 22.5938 34.2383C22.763 34.4857 22.8477 34.6354 22.8477 34.6875C23.1602 34.7266 23.4661 34.7461 23.7656 34.7461C23.9609 34.7461 24.2799 34.7396 24.7227 34.7266C25.1784 34.7005 25.6536 34.6745 26.1484 34.6484C26.6432 34.6094 27.1055 34.5703 27.5352 34.5312C27.9648 34.4922 28.2578 34.4531 28.4141 34.4141C28.5833 34.375 28.7005 34.3164 28.7656 34.2383C28.8307 34.1602 28.8958 34.082 28.9609 34.0039C29.026 33.9258 29.1042 33.8607 29.1953 33.8086C29.2995 33.7435 29.4622 33.7109 29.6836 33.7109C30.0872 33.7109 30.4258 33.6393 30.6992 33.4961C30.9857 33.3529 31.2135 33.1641 31.3828 32.9297C31.5521 32.6823 31.6693 32.4023 31.7344 32.0898C31.8125 31.7643 31.8516 31.4193 31.8516 31.0547Z" fill="white"/>
</svg>
