<svg width="50" height="26" viewBox="0 0 50 85" fill="none" xmlns="http://www.w3.org/2000/svg">
<path d="M49 1H1V83L25.3731 58.5745L49 83V1Z" fill="#612B6A" stroke="#612B6A"/>
<path d="M11.8418 16.4121C11.7637 16.5098 11.6758 16.5977 11.5781 16.6758C11.5 16.7539 11.4023 16.793 11.2852 16.793C11.1484 16.793 11.0312 16.7344 10.9336 16.6172C10.8555 16.5 10.8164 16.373 10.8164 16.2363C10.8164 16.2168 10.8262 16.1875 10.8457 16.1484C10.8652 16.1094 10.875 16.0703 10.875 16.0312L11.0508 15.9727C11.207 15.9727 11.3535 16.0215 11.4902 16.1191C11.627 16.2168 11.7441 16.3145 11.8418 16.4121ZM20.1914 37.3008V37.3887C20.1719 37.3301 20.1621 37.2812 20.1621 37.2422C20.1621 37.1836 20.1621 37.1348 20.1621 37.0957L20.1914 37.2715V37.3008ZM40.6113 23.7949C40.6113 24.0879 40.6016 24.4199 40.582 24.791C40.5625 25.1621 40.5234 25.543 40.4648 25.9336C40.4258 26.3242 40.3672 26.7051 40.2891 27.0762C40.2305 27.4277 40.1523 27.7402 40.0547 28.0137C39.7812 28.6777 39.4199 29.2832 38.9707 29.8301C38.541 30.377 38.1992 30.9922 37.9453 31.6758C37.8867 31.8516 37.7207 32.0469 37.4473 32.2617C37.1738 32.4766 36.8711 32.6914 36.5391 32.9062C36.207 33.1211 35.875 33.3262 35.543 33.5215C35.2305 33.6973 34.9863 33.8438 34.8105 33.9609C33.6973 34.6445 32.584 35.1621 31.4707 35.5137C30.3574 35.8652 29.1562 36.041 27.8672 36.041H27.6914C27.3789 35.8652 27.1152 35.748 26.9004 35.6895C26.7051 35.6309 26.4219 35.6016 26.0508 35.6016C25.6797 35.6016 25.3184 35.6113 24.9668 35.6309C24.6152 35.6504 24.2637 35.6797 23.9121 35.7188C23.7754 35.7383 23.502 35.8164 23.0918 35.9531C22.7012 36.0703 22.291 36.2168 21.8613 36.3926C21.4316 36.5488 21.041 36.7148 20.6895 36.8906C20.3574 37.0469 20.1914 37.1738 20.1914 37.2715V37.3887C20.2305 37.5254 20.2793 37.5938 20.3379 37.5938C20.4355 37.5938 20.5234 37.5449 20.6016 37.4473C20.6992 37.3301 20.8066 37.2715 20.9238 37.2715C21.0215 37.2715 21.0996 37.3203 21.1582 37.418C21.2168 37.5156 21.2559 37.6328 21.2754 37.7695C21.3145 37.8867 21.334 38.0137 21.334 38.1504C21.3535 38.2676 21.3633 38.3555 21.3633 38.4141C21.3633 38.9805 21.3047 39.5469 21.1875 40.1133C21.0703 40.6602 21.0117 41.2168 21.0117 41.7832C21.0117 42.3496 21.002 42.916 20.9824 43.4824C20.9824 44.0293 20.9824 44.5859 20.9824 45.1523C20.9824 46.1875 21.0312 46.9688 21.1289 47.4961C21.2461 48.0234 21.4609 48.4238 21.7734 48.6973C22.0859 48.9512 22.5156 49.1465 23.0625 49.2832C23.6094 49.4004 24.3223 49.5762 25.2012 49.8105C25.1426 49.9863 25.1133 50.1523 25.1133 50.3086C25.1133 50.543 25.1816 50.7188 25.3184 50.8359C25.4746 50.9336 25.6309 51.041 25.7871 51.1582C25.9629 51.2559 26.1191 51.373 26.2559 51.5098C26.4121 51.6465 26.4902 51.8613 26.4902 52.1543C26.4902 52.4082 26.3926 52.6328 26.1973 52.8281C25.9629 53.0625 25.8066 53.2578 25.7285 53.4141C25.6699 53.5703 25.6113 53.6973 25.5527 53.7949C25.4941 53.873 25.3867 53.9414 25.2305 54C25.0742 54.0391 24.791 54.0684 24.3809 54.0879C23.4434 54.1465 22.5156 54.1758 21.5977 54.1758C21.2461 54.1758 20.8945 54.166 20.543 54.1465C20.1914 54.1465 19.8301 54.1465 19.459 54.1465C18.5215 54.1465 17.6035 54.1758 16.7051 54.2344C16.1582 54.2734 15.6211 54.3613 15.0938 54.498C14.5859 54.6348 14.0488 54.7031 13.4824 54.7031C12.8379 54.7031 12.3984 54.5176 12.1641 54.1465C11.9297 53.7754 11.8125 53.2969 11.8125 52.7109C11.8125 52.1445 11.9395 51.6758 12.1934 51.3047C12.4473 50.9141 12.7598 50.6016 13.1309 50.3672C13.5215 50.1133 13.9316 49.9082 14.3613 49.752C14.8105 49.5957 15.2207 49.4492 15.5918 49.3125C15.9824 49.1562 16.3047 49 16.5586 48.8438C16.8125 48.6875 16.9395 48.4824 16.9395 48.2285C16.9395 47.9941 16.8906 47.7695 16.793 47.5547C16.7148 47.3398 16.6758 47.1152 16.6758 46.8809C16.6758 46.7441 16.7441 46.4805 16.8809 46.0898C17.0176 45.6992 17.0859 45.2402 17.0859 44.7129C17.0859 44.498 17.0859 44.293 17.0859 44.0977C17.0859 43.8828 17.0762 43.668 17.0566 43.4531C16.9395 43.3945 16.8516 43.2773 16.793 43.1016C16.7344 42.9258 16.6855 42.7402 16.6465 42.5449C16.627 42.3301 16.6172 42.125 16.6172 41.9297C16.6172 41.7148 16.6172 41.5488 16.6172 41.4316C16.6172 40.6895 16.666 39.957 16.7637 39.2344C16.8613 38.4922 16.9102 37.75 16.9102 37.0078C16.9102 36.5391 16.8809 36.0801 16.8223 35.6309C16.7637 35.1816 16.7344 34.7227 16.7344 34.2539C16.7344 34.1172 16.7734 34.0195 16.8516 33.9609C16.6758 33.8242 16.5879 33.6289 16.5879 33.375C16.5879 33.1016 16.627 32.8477 16.7051 32.6133C16.8027 32.3789 16.8516 32.1348 16.8516 31.8809C16.8516 31.4902 16.8125 31.0996 16.7344 30.709C16.6562 30.3184 16.5684 29.9375 16.4707 29.5664C16.3926 29.1758 16.3145 28.7949 16.2363 28.4238C16.1777 28.0332 16.1484 27.6426 16.1484 27.252C16.1484 27.0176 16.1777 26.793 16.2363 26.5781C16.3145 26.3633 16.3828 26.1484 16.4414 25.9336C16.5195 25.6992 16.5879 25.4746 16.6465 25.2598C16.7246 25.0254 16.7637 24.7812 16.7637 24.5273C16.7637 23.8633 16.6953 23.2188 16.5586 22.5938C16.4414 21.9492 16.3828 21.2949 16.3828 20.6309C16.3828 20.2402 16.4707 19.957 16.6465 19.7812C16.8418 19.5859 17.0469 19.4297 17.2617 19.3125C17.4766 19.1953 17.6719 19.0879 17.8477 18.9902C18.043 18.873 18.1406 18.707 18.1406 18.4922C18.1406 18.3555 18.0723 18.2383 17.9355 18.1406C17.8184 18.043 17.7012 17.9941 17.584 17.9941C17.3105 17.9941 17.0762 18.082 16.8809 18.2578C16.6855 18.4336 16.4609 18.5215 16.207 18.5215C16.0508 18.5215 15.9043 18.4238 15.7676 18.2285C15.6504 18.0137 15.5137 17.7891 15.3574 17.5547C15.2207 17.3203 15.0547 17.1055 14.8594 16.9102C14.6836 16.6953 14.4688 16.5879 14.2148 16.5879C14 16.5879 13.7852 16.6172 13.5703 16.6758C13.3555 16.7344 13.1406 16.7637 12.9258 16.7637C12.6328 16.7637 12.4473 16.6953 12.3691 16.5586C12.291 16.4219 12.252 16.2461 12.252 16.0312C12.252 15.9336 12.252 15.8359 12.252 15.7383C12.2715 15.6406 12.2812 15.543 12.2812 15.4453C12.2812 15.2891 12.252 15.123 12.1934 14.9473C12.1348 14.7715 11.998 14.6836 11.7832 14.6836C11.666 14.6836 11.5488 14.7031 11.4316 14.7422C11.7051 14.3906 12.0664 14.127 12.5156 13.9512C12.9648 13.7559 13.4336 13.6094 13.9219 13.5117C14.4297 13.4141 14.9375 13.3457 15.4453 13.3066C15.9727 13.248 16.4414 13.1699 16.8516 13.0723C17.0078 13.0332 17.1445 13.0039 17.2617 12.9844C17.3984 12.9648 17.5449 12.9551 17.7012 12.9551C18.0527 12.9551 18.3945 12.9941 18.7266 13.0723C19.0781 13.1309 19.4199 13.1602 19.752 13.1602C20.123 13.1602 20.416 13.082 20.6309 12.9258C20.8652 12.75 21.1387 12.6621 21.4512 12.6621C21.6074 12.7402 21.8125 12.8379 22.0664 12.9551C22.3203 13.0527 22.5254 13.1016 22.6816 13.1016C23.3457 13.1016 24 13.0625 24.6445 12.9844C25.2891 12.9062 25.9336 12.8672 26.5781 12.8672C27.2812 12.8672 27.9551 12.9648 28.5996 13.1602C29.2637 13.3359 29.918 13.541 30.5625 13.7754C31.2266 14.0098 31.8809 14.2441 32.5254 14.4785C33.1699 14.7129 33.834 14.8887 34.5176 15.0059C34.752 15.0449 34.9766 15.1328 35.1914 15.2695C35.4258 15.4063 35.6504 15.5723 35.8652 15.7676C36.0801 15.9434 36.2852 16.1289 36.4805 16.3242C36.6953 16.5195 36.8906 16.6855 37.0664 16.8223C37.3398 17.0371 37.5547 17.2812 37.7109 17.5547C37.8867 17.8281 38.0527 18.1113 38.209 18.4043C38.3848 18.6777 38.5605 18.9512 38.7363 19.2246C38.9316 19.4785 39.1758 19.7031 39.4688 19.8984C39.7422 20.0742 39.957 20.3281 40.1133 20.6602C40.2695 20.9727 40.377 21.3145 40.4355 21.6855C40.5137 22.0566 40.5625 22.4277 40.582 22.7988C40.6016 23.1699 40.6113 23.502 40.6113 23.7949ZM35.7773 25.582C35.7773 24.332 35.582 23.1992 35.1914 22.1836C34.8203 21.1484 34.2734 20.2695 33.5508 19.5469C32.8477 18.8047 31.9883 18.2285 30.9727 17.8184C29.957 17.4082 28.8242 17.2031 27.5742 17.2031C27.3789 17.2031 27.0859 17.2031 26.6953 17.2031C26.3047 17.2031 25.875 17.2129 25.4062 17.2324C24.9375 17.252 24.4492 17.2812 23.9414 17.3203C23.4336 17.3594 22.9648 17.418 22.5352 17.4961C22.1055 17.5547 21.7246 17.6426 21.3926 17.7598C21.0801 17.8574 20.875 17.9844 20.7773 18.1406C20.6406 18.3555 20.4453 18.6191 20.1914 18.9316C19.957 19.2246 19.8398 19.4883 19.8398 19.7227C19.8398 19.9375 19.8984 20.1621 20.0156 20.3965C20.1328 20.6113 20.2598 20.8457 20.3965 21.0996C20.5527 21.3535 20.6895 21.6172 20.8066 21.8906C20.9434 22.1445 21.0117 22.4082 21.0117 22.6816C20.8555 22.7012 20.709 22.75 20.5723 22.8281C20.4355 22.8867 20.3672 23.0039 20.3672 23.1797C20.3672 23.4727 20.4551 23.7949 20.6309 24.1465C20.8262 24.498 20.9238 24.8594 20.9238 25.2305C20.9238 25.5039 20.8652 25.7188 20.748 25.875C20.6309 26.0117 20.5039 26.1289 20.3672 26.2266C20.2305 26.3242 20.1035 26.4219 19.9863 26.5195C19.8691 26.6172 19.8105 26.7441 19.8105 26.9004C19.8105 27.0762 19.9375 27.3691 20.1914 27.7793C20.4453 28.1895 20.7285 28.6289 21.041 29.0977C21.3535 29.5469 21.6367 29.9668 21.8906 30.3574C22.1445 30.7285 22.2715 30.9531 22.2715 31.0312C22.7402 31.0898 23.1992 31.1191 23.6484 31.1191C23.9414 31.1191 24.4199 31.1094 25.084 31.0898C25.7676 31.0508 26.4805 31.0117 27.2227 30.9727C27.9648 30.9141 28.6582 30.8555 29.3027 30.7969C29.9473 30.7383 30.3867 30.6797 30.6211 30.6211C30.875 30.5625 31.0508 30.4746 31.1484 30.3574C31.2461 30.2402 31.3438 30.123 31.4414 30.0059C31.5391 29.8887 31.6562 29.791 31.793 29.7129C31.9492 29.6152 32.1934 29.5664 32.5254 29.5664C33.1309 29.5664 33.6387 29.459 34.0488 29.2441C34.4785 29.0293 34.8203 28.7461 35.0742 28.3945C35.3281 28.0234 35.5039 27.6035 35.6016 27.1348C35.7188 26.6465 35.7773 26.1289 35.7773 25.582Z" fill="white"/>
</svg>
